<?xml version="1.0" standalone="no"?>
<!DOCTYPE svg PUBLIC "-//W3C//DTD SVG 20010904//EN"
 "http://www.w3.org/TR/2001/REC-SVG-20010904/DTD/svg10.dtd">
<svg version="1.0" xmlns="http://www.w3.org/2000/svg"
 width="512.000000pt" height="512.000000pt" viewBox="0 0 512.000000 512.000000"
 preserveAspectRatio="xMidYMid meet">
<metadata>
Created by potrace 1.14, written by Peter Selinger 2001-2017
</metadata>
<g transform="translate(0.000000,512.000000) scale(0.100000,-0.100000)"
fill="#000000" stroke="none">
<path d="M4435 4728 c-224 -61 -405 -220 -515 -453 -27 -56 -45 -80 -95 -120
-64 -51 -264 -248 -323 -318 -35 -42 -40 -37 -17 20 29 74 37 192 21 295 -8
50 -46 152 -73 197 -64 102 -209 244 -312 304 l-30 18 -15 -30 c-24 -46 -73
-238 -87 -336 -40 -302 60 -562 267 -692 24 -16 44 -32 44 -36 0 -5 -8 -21
-18 -35 -104 -149 -257 -447 -347 -673 -21 -52 -38 -95 -39 -96 -1 -1 -1 31 0
70 3 270 -146 502 -416 645 -77 41 -247 109 -254 101 -9 -9 -17 -129 -17 -244
0 -308 92 -574 251 -723 74 -70 234 -162 282 -162 40 -1 39 -14 -11 -201 -27
-101 -60 -230 -72 -287 -22 -103 -22 -103 -70 -137 -78 -56 -99 -77 -150 -149
-63 -89 -100 -200 -100 -304 0 -73 -1 -74 -15 -46 -9 16 -29 62 -46 103 -17
40 -70 151 -118 246 l-88 172 63 42 c129 85 194 190 230 376 7 40 7 171 0 231
-8 60 -39 195 -57 247 l-13 37 -60 -37 c-142 -89 -248 -207 -297 -332 -17 -44
-22 -78 -22 -161 -1 -58 3 -121 8 -140 7 -30 1 -25 -45 40 -104 149 -290 368
-357 423 l-22 19 46 51 c76 85 113 177 115 288 2 88 -11 170 -40 244 -24 61
-98 208 -116 231 l-21 26 -55 -60 c-174 -194 -211 -409 -102 -599 24 -44 25
-53 1 -30 -31 31 -151 110 -250 164 -82 46 -116 72 -146 110 -89 112 -220 198
-346 227 -54 13 -180 14 -231 3 -103 -24 -207 -68 -303 -129 l-54 -35 58 -53
c130 -118 307 -220 444 -255 131 -34 271 -21 387 35 74 37 79 38 108 23 40
-20 175 -104 175 -109 0 -2 -19 4 -42 13 -44 15 -168 22 -223 11 -86 -16 -213
-90 -299 -173 -59 -56 -60 -53 65 -115 104 -51 187 -78 286 -92 150 -22 296
21 396 116 26 26 52 46 56 46 35 0 417 -465 447 -544 2 -6 -24 15 -59 49 -188
180 -424 200 -700 58 -48 -25 -87 -48 -87 -53 0 -8 80 -84 149 -141 57 -48
182 -122 250 -149 167 -65 319 -59 470 21 57 30 77 37 87 28 13 -11 179 -336
221 -434 62 -143 114 -278 109 -282 -3 -3 -9 3 -12 13 -107 299 -316 463 -589
464 -66 0 -161 -11 -210 -24 -80 -21 -135 -40 -135 -47 0 -26 138 -208 220
-289 102 -101 164 -143 282 -192 67 -29 82 -31 193 -32 100 0 131 4 184 23
l64 22 27 -33 c48 -56 160 -425 160 -524 0 -73 22 -104 74 -104 58 0 64 16 71
200 4 91 8 181 10 200 2 19 6 80 10 135 4 55 8 107 10 115 1 8 6 42 10 76 6
54 12 66 56 115 91 100 159 272 177 444 8 79 6 244 -3 292 l-6 32 -34 -15
c-19 -8 -37 -14 -40 -14 -10 0 2 62 41 209 49 191 65 239 85 257 16 15 22 14
71 -4 81 -30 122 -36 248 -36 125 -1 192 16 315 76 113 56 259 179 367 308 55
67 158 219 158 235 0 17 -156 63 -276 81 -61 10 -203 10 -269 2 -140 -19 -276
-90 -383 -200 -56 -58 -134 -168 -146 -206 -5 -13 -10 -22 -12 -19 -9 9 97
267 182 442 72 148 228 414 252 429 4 2 27 -10 52 -26 197 -135 439 -139 693
-12 60 30 198 121 242 159 71 62 115 105 115 113 0 4 -35 29 -77 55 -270 161
-524 176 -744 42 -37 -22 -29 -12 47 63 50 49 107 101 126 116 l36 27 93 -25
c204 -53 420 -13 626 117 147 93 340 291 446 460 20 32 29 26 -123 77 -183 61
-404 77 -545 38z m-1929 -3740 c-3 -46 -6 -92 -6 -103 -1 -20 -44 87 -55 135
-5 22 -1 27 27 36 18 6 35 12 37 13 2 0 1 -36 -3 -81z"/>
</g>
</svg>
